<svg width="44" height="26" viewBox="0 0 44 26" fill="none" xmlns="http://www.w3.org/2000/svg">
<g filter="url(#filter0_d_47_138)">
<path d="M19.6055 13.137H4.61984C4.27751 13.137 4 13.4145 4 13.7568V15.9445C4 16.2868 4.27751 16.5643 4.61984 16.5643H19.6055C19.9478 16.5643 20.2253 16.2868 20.2253 15.9445V13.7568C20.2253 13.4145 19.9478 13.137 19.6055 13.137Z" fill="black"/>
<path d="M32.2939 10.1836C32.3782 10.1958 32.4641 10.1882 32.5449 10.1614C32.6256 10.1346 32.6991 10.0893 32.7593 10.0291C32.8194 9.96891 32.8647 9.8955 32.8916 9.81471C32.9184 9.73393 32.926 9.648 32.9138 9.56377V8.12354C32.9254 8.03941 32.9174 7.95372 32.8904 7.87319C32.8634 7.79266 32.8181 7.7195 32.758 7.65944C32.698 7.59938 32.6248 7.55405 32.5443 7.52703C32.4638 7.50001 32.378 7.49202 32.2939 7.5037H29.5775V6.98282H29.6322C30.0782 6.98612 30.5236 6.94952 30.9631 6.87344C31.3303 6.81431 31.6834 6.68805 32.0048 6.50101C32.2926 6.32815 32.5262 6.07827 32.6794 5.7796C32.8497 5.41495 32.9309 5.01504 32.9164 4.61283V4.43053C32.936 3.7262 32.8119 3.02526 32.5517 2.37046C32.3252 1.83423 31.9669 1.36391 31.51 1.00315C31.0118 0.631484 30.44 0.370438 29.8328 0.237465C29.1004 0.0726547 28.3515 -0.00687462 27.6008 0.000465247H27.0174C26.2659 -0.00686583 25.5161 0.0726622 24.7829 0.237465C24.1759 0.37097 23.6042 0.631967 23.1057 1.00315C22.6479 1.36303 22.2894 1.8336 22.0639 2.37046C21.8025 3.02492 21.6784 3.72611 21.6993 4.43053V4.61283C21.6834 5.01514 21.7647 5.41537 21.9363 5.7796C22.0886 6.07884 22.3225 6.32892 22.6108 6.50101C22.9323 6.68805 23.2854 6.81431 23.6526 6.87344C24.092 6.94963 24.5374 6.98623 24.9834 6.98282H25.0381V7.5037H22.3035C22.2193 7.49146 22.1333 7.49906 22.0526 7.52589C21.9718 7.55271 21.8984 7.59802 21.8382 7.65821C21.778 7.7184 21.7327 7.79181 21.7058 7.87259C21.679 7.95338 21.6714 8.0393 21.6837 8.12354V9.55595C21.6714 9.64019 21.679 9.72612 21.7058 9.8069C21.7327 9.88769 21.778 9.96109 21.8382 10.0213C21.8984 10.0815 21.9718 10.1268 22.0526 10.1536C22.1333 10.1804 22.2193 10.188 22.3035 10.1758L32.2939 10.1836ZM25.1475 3.72995C25.1492 3.58025 25.2079 3.43683 25.3116 3.32887C25.4294 3.20145 25.5721 3.09952 25.7309 3.02937C25.9205 2.94424 26.1187 2.87964 26.3221 2.83664C26.5473 2.7888 26.7768 2.76437 27.007 2.76372H27.5904C27.8198 2.76451 28.0484 2.78895 28.2727 2.83664C28.4768 2.88006 28.6759 2.94465 28.8666 3.02937C29.0249 3.10027 29.1674 3.2021 29.2859 3.32887C29.3896 3.43683 29.4482 3.58025 29.4499 3.72995V3.83933C29.4499 4.09976 29.1895 4.2404 28.7025 4.2404H25.8949C25.3949 4.2404 25.1475 4.10758 25.1475 3.83933V3.72995Z" fill="black"/>
<path d="M36.094 11.551C35.3225 11.2191 34.5108 10.9897 33.6797 10.8687C32.7628 10.7268 31.8364 10.6563 30.9086 10.6577H29.7783C28.8471 10.6565 27.9172 10.727 26.9968 10.8687C26.1653 10.9875 25.3533 11.217 24.5826 11.551C23.9317 11.829 23.3495 12.2459 22.8767 12.7725C22.4426 13.279 22.2124 13.9288 22.2308 14.5956V14.9055C22.2207 15.2547 22.2828 15.6023 22.4131 15.9264C22.5357 16.2097 22.742 16.4487 23.0043 16.6114C23.3406 16.8103 23.7119 16.9429 24.0982 17.002C24.6617 17.0961 25.2327 17.1388 25.804 17.1296H34.8829C35.4507 17.1379 36.0182 17.0952 36.5784 17.002C36.9672 16.9437 37.3413 16.811 37.68 16.6114C37.9423 16.4479 38.1493 16.2092 38.2738 15.9264C38.403 15.6019 38.465 15.2546 38.4561 14.9055V14.5956C38.4735 13.9285 38.2424 13.2787 37.8076 12.7725C37.3329 12.2446 36.7478 11.8276 36.094 11.551ZM34.2709 14.1033C34.2724 14.1713 34.2492 14.2375 34.2056 14.2897C34.162 14.3419 34.101 14.3765 34.0339 14.3872C33.7636 14.4387 33.4884 14.4596 33.2135 14.4497H27.463C27.1846 14.4594 26.906 14.4384 26.6322 14.3872C26.5637 14.3783 26.5008 14.3444 26.4556 14.292C26.4105 14.2396 26.3862 14.1725 26.3874 14.1033V14.0122C26.3874 13.8924 26.4812 13.7882 26.6687 13.7023C26.9089 13.604 27.1597 13.534 27.4161 13.4939C27.7722 13.4345 28.1313 13.3945 28.4918 13.3741C28.9006 13.3507 29.3225 13.3376 29.7601 13.3376H30.9086C31.3461 13.3376 31.7681 13.3507 32.1744 13.3741C32.5348 13.3943 32.8939 13.4343 33.25 13.4939C33.5041 13.5327 33.7526 13.6027 33.9896 13.7023C34.1719 13.7882 34.25 13.8924 34.25 14.0122L34.2709 14.1033Z" fill="black"/>
<path d="M38.7295 2.87309H37.6539V0.789584C37.6656 0.705451 37.6576 0.619758 37.6306 0.539232C37.6035 0.458705 37.5582 0.385541 37.4982 0.32548C37.4381 0.265419 37.3649 0.220096 37.2844 0.193075C37.2039 0.166053 37.1182 0.158064 37.034 0.16974H34.263C34.1787 0.157507 34.0928 0.165106 34.012 0.19193C33.9312 0.218754 33.8578 0.264066 33.7977 0.324256C33.7375 0.384445 33.6921 0.457852 33.6653 0.538636C33.6385 0.61942 33.6309 0.705347 33.6431 0.789584V9.55594C33.6309 9.64018 33.6385 9.72611 33.6653 9.80689C33.6921 9.88768 33.7375 9.96108 33.7977 10.0213C33.8578 10.0815 33.9312 10.1268 34.012 10.1536C34.0928 10.1804 34.1787 10.188 34.263 10.1758H37.034C37.1183 10.188 37.2042 10.1804 37.285 10.1536C37.3658 10.1268 37.4392 10.0815 37.4994 10.0213C37.5596 9.96108 37.6049 9.88768 37.6317 9.80689C37.6585 9.72611 37.6661 9.64018 37.6539 9.55594V7.14949H38.7295C38.8137 7.16173 38.8997 7.15413 38.9804 7.1273C39.0612 7.10048 39.1346 7.05517 39.1948 6.99498C39.255 6.93479 39.3003 6.86138 39.3272 6.7806C39.354 6.69981 39.3616 6.61389 39.3493 6.52965V3.49294C39.361 3.4088 39.353 3.32311 39.326 3.24258C39.299 3.16206 39.2537 3.08889 39.1936 3.02883C39.1336 2.96877 39.0604 2.92345 38.9798 2.89643C38.8993 2.86941 38.8136 2.86142 38.7295 2.87309Z" fill="black"/>
<path d="M19.7226 0.484893C19.5116 0.266125 19.1418 0.156738 18.6209 0.156738H5.59899C5.07811 0.156738 4.70829 0.266125 4.49473 0.484893C4.28117 0.703662 4.177 1.06827 4.177 1.57873V2.16211C4.177 2.68299 4.28377 3.03719 4.49473 3.25595C4.70568 3.47472 5.0755 3.58411 5.59899 3.58411H15.5712V5.79002H5.96882C5.55674 5.767 5.14552 5.84852 4.7734 6.02702C4.49994 6.18589 4.36451 6.51925 4.36451 7.02971V7.7954C4.36451 8.31627 4.49994 8.64182 4.7734 8.79808C5.14512 8.97779 5.55665 9.05938 5.96882 9.03508H15.3029L15.0425 11.0587C15.0179 11.1744 15.0172 11.294 15.0405 11.41C15.0637 11.526 15.1105 11.636 15.1779 11.7332C15.3055 11.8921 15.5634 11.9702 15.9592 11.9702H18.6209C19.1418 11.9702 19.496 11.8634 19.7148 11.6525C19.9335 11.4415 20.0429 11.0717 20.0429 10.5482V1.57873C20.0429 1.06827 19.9361 0.703662 19.7226 0.484893Z" fill="black"/>
</g>
<defs>
<filter id="filter0_d_47_138" x="0" y="0" width="43.355" height="25.1309" filterUnits="userSpaceOnUse" color-interpolation-filters="sRGB">
<feFlood flood-opacity="0" result="BackgroundImageFix"/>
<feColorMatrix in="SourceAlpha" type="matrix" values="0 0 0 0 0 0 0 0 0 0 0 0 0 0 0 0 0 0 127 0" result="hardAlpha"/>
<feOffset dy="4"/>
<feGaussianBlur stdDeviation="2"/>
<feComposite in2="hardAlpha" operator="out"/>
<feColorMatrix type="matrix" values="0 0 0 0 0 0 0 0 0 0 0 0 0 0 0 0 0 0 0.25 0"/>
<feBlend mode="normal" in2="BackgroundImageFix" result="effect1_dropShadow_47_138"/>
<feBlend mode="normal" in="SourceGraphic" in2="effect1_dropShadow_47_138" result="shape"/>
</filter>
</defs>
</svg>
