<svg width="59" height="30" viewBox="0 0 59 30" fill="none" xmlns="http://www.w3.org/2000/svg">
<rect width="59" height="30" rx="15" fill="#D9D9D9"/>
<path d="M18.1191 10.1016V20H16.9434V10.1016H18.1191ZM23.0273 20.1504C21.0039 20.1572 19.6367 18.626 19.6367 16.3223C19.6367 14.0049 21.0039 12.4805 23.0273 12.4805C25.0439 12.4805 26.3975 14.0049 26.3906 16.3223C26.3975 18.626 25.0439 20.1572 23.0273 20.1504ZM20.8125 16.3223C20.8193 17.8057 21.5166 19.1113 23.0273 19.1113C24.5244 19.1113 25.2148 17.8057 25.2148 16.3223C25.2148 14.8457 24.5244 13.5195 23.0273 13.5195C21.5166 13.5195 20.8193 14.8457 20.8125 16.3223ZM30.9434 22.9395C29.1455 22.9395 27.9287 22.1533 27.7988 20.7793H29.0293C29.1865 21.5381 29.8906 21.9141 30.9434 21.9141C32.2148 21.9141 32.9941 21.3604 32.9941 20.1367V18.6328H32.8984C32.6455 19.043 32.1738 19.8838 30.7383 19.8906C28.9336 19.8838 27.5801 18.5234 27.5801 16.1855C27.5801 13.9023 28.8857 12.4805 30.752 12.4805C32.1943 12.4805 32.6592 13.3555 32.9258 13.752H33.0215V12.5762H34.1699V20.2051C34.1631 22.1191 32.7549 22.9395 30.9434 22.9395ZM28.7695 16.2266C28.7695 17.7646 29.4941 18.8379 30.9023 18.8379C32.2627 18.8379 33.0146 17.8604 33.0215 16.2266C33.0146 14.6338 32.2832 13.5332 30.9023 13.5332C29.4736 13.5332 28.7695 14.7295 28.7695 16.2266ZM39.0781 20.1504C37.0547 20.1572 35.6875 18.626 35.6875 16.3223C35.6875 14.0049 37.0547 12.4805 39.0781 12.4805C41.0947 12.4805 42.4482 14.0049 42.4414 16.3223C42.4482 18.626 41.0947 20.1572 39.0781 20.1504ZM36.8633 16.3223C36.8701 17.8057 37.5674 19.1113 39.0781 19.1113C40.5752 19.1113 41.2656 17.8057 41.2656 16.3223C41.2656 14.8457 40.5752 13.5195 39.0781 13.5195C37.5674 13.5195 36.8701 14.8457 36.8633 16.3223Z" fill="#9C9C9C"/>
</svg>
