<svg width="60" height="60" viewBox="0 0 60 60" fill="none" xmlns="http://www.w3.org/2000/svg">
<g clip-path="url(#clip0_49_52)">
<path d="M60 30C60 46.5685 46.5685 60 30 60C13.4315 60 0 46.5685 0 30C0 13.4315 13.4315 0 30 0C46.5685 0 60 13.4315 60 30Z" fill="#FFF3D7"/>
<path d="M60 30C60 46.5685 46.5685 60 30 60C13.4315 60 0 46.5685 0 30C0 13.4315 13.4315 0 30 0C46.5685 0 60 13.4315 60 30Z" fill="#FFF3D7"/>
<path d="M27.3169 33.4909C27.1448 33.4915 26.9767 33.4383 26.8353 33.3385C26.6939 33.2388 26.5859 33.0972 26.526 32.9329C26.4661 32.7687 26.4571 32.5897 26.5003 32.4201C26.5435 32.2505 26.6367 32.0984 26.7674 31.9845L32.9521 26.5592C33.0358 26.4857 33.1329 26.4297 33.2378 26.3945C33.3428 26.3592 33.4535 26.3453 33.5638 26.3537C33.674 26.362 33.7815 26.3924 33.8802 26.443C33.9789 26.4936 34.0668 26.5636 34.139 26.6488C34.2111 26.7341 34.2661 26.833 34.3007 26.9398C34.3353 27.0467 34.349 27.1595 34.3408 27.2717C34.3326 27.384 34.3028 27.4935 34.2531 27.594C34.2033 27.6945 34.1346 27.784 34.0509 27.8575L27.8663 33.2829C27.7142 33.418 27.5188 33.492 27.3169 33.4909Z" fill="#FF7A16"/>
<path d="M32.8113 34.0219L32.7761 33.986C32.6225 33.8341 32.4172 33.7485 32.2032 33.7469C32.0894 33.7477 31.9769 33.7713 31.8721 33.8162C31.8266 33.8368 31.7826 33.8607 31.7406 33.888L31.588 34.0219L29.9843 35.423L29.0451 36.2575C28.6567 36.5983 28.2063 36.858 27.7194 37.0215C27.2325 37.1851 26.7187 37.2494 26.2075 37.2107C25.6962 37.1721 25.1974 37.0313 24.7395 36.7964C24.2817 36.5614 23.8738 36.2369 23.539 35.8415C23.2043 35.446 22.9494 34.9872 22.7888 34.4914C22.6282 33.9956 22.565 33.4724 22.603 32.9518C22.6409 32.4311 22.7792 31.9231 23.0099 31.4569C23.2406 30.9906 23.5592 30.5752 23.9476 30.2344L25.5912 28.7997C25.6714 28.7183 25.7347 28.6213 25.7774 28.5146C25.8202 28.4078 25.8415 28.2934 25.8401 28.1781C25.8395 27.9585 25.7553 27.7476 25.6053 27.5899L25.5701 27.554C25.4327 27.4224 25.2557 27.3419 25.0678 27.3254C24.8799 27.3089 24.6921 27.3575 24.5346 27.4631L24.382 27.597L22.844 28.936C21.7611 29.9299 21.1032 31.3159 21.0111 32.7975C20.9191 34.279 21.4001 35.7385 22.3514 36.8634C23.3026 37.9883 24.6485 38.6894 26.1009 38.8166C27.5533 38.9438 28.997 38.487 30.1228 37.5439L31.062 36.7166L32.7808 35.2317C32.8052 35.2068 32.8272 35.1796 32.8465 35.1504C32.8992 35.0843 32.9412 35.0101 32.971 34.9305C33.0096 34.8274 33.0294 34.718 33.0297 34.6077C33.0324 34.3913 32.9544 34.1819 32.8113 34.0219Z" fill="#FF7A16"/>
<path d="M27.7959 26.0978L27.8311 26.1313C27.9849 26.2829 28.19 26.3685 28.4041 26.3704C28.5181 26.3702 28.6309 26.3458 28.7351 26.2987C28.7821 26.2795 28.8269 26.2555 28.869 26.2269L29.0192 26.0954L30.8342 24.4217L31.7734 23.5896C32.56 22.9307 33.5685 22.6114 34.5833 22.7002C35.598 22.789 36.5384 23.2787 37.203 24.0646C37.8676 24.8505 38.2038 25.8701 38.1396 26.9052C38.0753 27.9403 37.6157 28.9087 36.8592 29.6031L35.0066 31.3295C34.9265 31.4114 34.8632 31.5088 34.8205 31.616C34.7778 31.7231 34.7564 31.8379 34.7577 31.9535C34.7588 32.1731 34.8429 32.3837 34.9925 32.5417L35.0278 32.5776C35.1654 32.7098 35.343 32.7905 35.5315 32.8066C35.72 32.8226 35.9083 32.7731 36.0656 32.6661L36.2158 32.5346L37.9604 30.9015C39.0433 29.9076 39.7012 28.5216 39.7933 27.04C39.8854 25.5585 39.4043 24.099 38.4531 22.9741C37.5018 21.8492 36.156 21.1481 34.7035 21.0209C33.2511 20.8937 31.8075 21.3506 30.6816 22.2936L29.7424 23.1185L27.8124 24.9023C27.7889 24.9262 27.7678 24.9549 27.7466 24.9812C27.6944 25.0485 27.6524 25.1235 27.6222 25.2035C27.5836 25.3058 27.5637 25.4144 27.5635 25.5239C27.5679 25.7381 27.6509 25.9427 27.7959 26.0978Z" fill="#FF7A16"/>
</g>
<defs>
<clipPath id="clip0_49_52">
<rect width="60" height="60" fill="white"/>
</clipPath>
</defs>
</svg>
