<svg width="60" height="60" viewBox="0 0 60 60" fill="none" xmlns="http://www.w3.org/2000/svg">
<circle cx="30" cy="30" r="30" fill="#D9D9D9"/>
<path d="M33.6586 20.7695C33.9882 20.8566 34.3314 20.91 34.6449 21.0365C36.0915 21.6189 36.9606 22.6856 37.1859 24.228C37.3822 25.5734 36.9362 26.7208 35.9777 27.6768C34.3704 29.2806 32.763 30.8839 31.1556 32.4867C30.2654 33.3769 29.1966 33.8136 27.9379 33.7287C26.9456 33.6619 26.09 33.2639 25.3878 32.5584C25.2421 32.413 25.159 32.2167 25.1563 32.0112C25.1536 31.8057 25.2316 31.6073 25.3735 31.4582C25.5114 31.3053 25.7041 31.2127 25.91 31.2004C26.1159 31.1881 26.3184 31.2571 26.4736 31.3925C26.8077 31.6839 27.1581 31.9418 27.5947 32.0488C28.4838 32.267 29.2779 32.074 29.9304 31.4304C31.5997 29.7821 33.2702 28.1341 34.9142 26.4614C36.2569 25.095 35.6093 22.8733 33.7554 22.4412C32.8761 22.2361 32.1102 22.493 31.4728 23.1253C30.598 23.9929 29.7249 24.8625 28.8534 25.7341C28.5384 26.0469 28.1722 26.1096 27.8313 25.9121C27.7314 25.856 27.6449 25.779 27.5777 25.6865C27.5105 25.5939 27.4641 25.488 27.4419 25.3759C27.4196 25.2638 27.4219 25.1483 27.4487 25.0372C27.4755 24.9261 27.5261 24.8221 27.597 24.7323C27.6231 24.6971 27.6514 24.6636 27.6817 24.6321C28.6458 23.6769 29.5989 22.71 30.5796 21.7713C31.159 21.2167 31.8793 20.9197 32.6753 20.809C32.7167 20.7998 32.7573 20.7873 32.7966 20.7714L33.6586 20.7695Z" fill="#A8A8A8"/>
<path d="M18.0038 35.5762C18.0637 35.3234 18.1115 35.0673 18.185 34.8186C18.3798 34.1575 18.7468 33.5986 19.2328 33.114C20.7082 31.6429 22.1838 30.172 23.6595 28.7013C24.5415 27.8231 25.6074 27.4028 26.8515 27.4884C27.8431 27.5568 28.6977 27.9561 29.4 28.6634C29.5447 28.8096 29.6265 29.0065 29.6279 29.2119C29.6293 29.4174 29.5502 29.6153 29.4075 29.7636C29.2712 29.9136 29.0817 30.0049 28.879 30.018C28.6764 30.0311 28.4766 29.9651 28.322 29.8338C27.9829 29.5412 27.6288 29.2756 27.1853 29.1674C26.2954 28.9507 25.5026 29.1472 24.8493 29.7902C23.3307 31.2889 21.8198 32.7954 20.3168 34.3096C19.6616 34.9711 19.4525 35.7817 19.7139 36.6726C19.9735 37.5557 20.5805 38.1244 21.4848 38.3302C22.357 38.5289 23.1188 38.2803 23.7525 37.6541C24.4869 36.9288 25.2133 36.1952 25.9476 35.4695C26.3387 35.0827 26.9042 35.1165 27.2049 35.5345C27.3081 35.6738 27.362 35.8434 27.3581 36.0165C27.3542 36.1897 27.2928 36.3566 27.1834 36.4912C27.1573 36.5263 27.129 36.5596 27.0986 36.5911C26.2897 37.3927 25.5 38.2142 24.6666 38.9898C22.9971 40.5437 20.1947 40.2635 18.8289 38.4328C18.402 37.8607 18.1266 37.2308 18.0377 36.5194C18.029 36.4906 18.0163 36.4632 18 36.4379L18.0038 35.5762Z" fill="#A8A8A8"/>
</svg>
