<svg width="106" height="106" viewBox="0 0 106 106" fill="none" xmlns="http://www.w3.org/2000/svg">
<circle cx="53" cy="53" r="53" fill="#A8A8A8"/>
<g clip-path="url(#clip0_252_1314)">
<path d="M53.027 42.1115C56.4151 42.1115 59.8016 42.1115 63.1865 42.1115C65.8724 42.1115 67.5122 43.7533 67.5146 46.4439C67.5146 51.0563 67.5146 55.6687 67.5146 60.2811C67.5146 62.9765 65.8653 64.6112 63.1723 64.6112H42.6155C40.217 64.6112 38.4876 62.9029 38.4829 60.497C38.4829 57.5621 38.5112 54.6271 38.5159 51.6946C38.5159 49.9056 38.4782 48.1166 38.4806 46.33C38.4806 43.8221 40.144 42.1257 42.6344 42.1138C46.0978 42.0996 49.5636 42.1138 53.027 42.1115ZM65.2386 61.5505L65.4177 61.5078C65.5118 61.2034 65.575 60.8902 65.6062 60.573C65.618 55.7636 65.6274 50.9567 65.6062 46.1473C65.6062 44.8329 64.7533 44.0262 63.4362 44.0238C56.4873 44.0238 49.5393 44.0238 42.5919 44.0238C41.2254 44.0238 40.4055 44.8637 40.3843 46.2422C40.3537 48.1403 40.3254 50.0385 40.3254 51.9532C40.3254 54.0886 40.349 56.2002 40.3678 58.3237C40.3799 58.5226 40.4035 58.7207 40.4385 58.9169L40.5869 58.9525L46.3452 51.9342L54.3205 58.8742L58.5874 54.0743L65.2386 61.5505Z" fill="white"/>
<path d="M60.6884 45.7803C61.1371 45.7829 61.5808 45.8745 61.9943 46.0499C62.4077 46.2252 62.7829 46.4808 63.0983 46.8022C63.4136 47.1235 63.6631 47.5043 63.8323 47.9227C64.0016 48.3411 64.0873 48.789 64.0847 49.2408C64.0821 49.6925 63.9911 50.1394 63.817 50.5558C63.6429 50.9722 63.389 51.35 63.0699 51.6675C62.7508 51.9851 62.3728 52.2363 61.9573 52.4068C61.5418 52.5772 61.097 52.6636 60.6484 52.6609C59.7594 52.6403 58.9128 52.2745 58.2854 51.64C57.658 51.0055 57.2983 50.1514 57.2815 49.2562C57.2759 48.8019 57.3599 48.3511 57.5285 47.9298C57.6972 47.5085 57.9472 47.125 58.2641 46.8017C58.581 46.4784 58.9584 46.2217 59.3746 46.0463C59.7907 45.871 60.2373 45.7806 60.6884 45.7803Z" fill="white"/>
</g>
<defs>
<clipPath id="clip0_252_1314">
<rect width="29.0411" height="22.5068" fill="white" transform="translate(38.4805 42.1094)"/>
</clipPath>
</defs>
</svg>
