<svg width="349" height="100" viewBox="0 0 349 100" fill="none" xmlns="http://www.w3.org/2000/svg">
<rect width="349" height="100" rx="15" fill="#D9D9D9"/>
<path d="M34.1777 45.1025V46.5469H20.498V45.1025H34.1777ZM21.1787 39.1758V37.7812H26.4082V36.3701H28.251V37.7812H33.4307V39.1758H21.1787ZM22.1914 51.1787V47.4268H24.0342V49.7178H32.6338V51.1787H22.1914ZM22.3408 42.0312C22.3408 40.4956 24.1587 39.707 27.3213 39.707C30.4839 39.707 32.3101 40.4956 32.3184 42.0312C32.3101 43.5171 30.4839 44.3223 27.3213 44.3223C24.1587 44.3223 22.3408 43.5171 22.3408 42.0312ZM24.2334 42.0312C24.2168 42.687 25.2544 43.0024 27.3213 42.9941C29.3965 43.0024 30.4341 42.687 30.4258 42.0312C30.4341 41.3755 29.3965 41.0186 27.3213 41.0186C25.2544 41.0186 24.2168 41.3755 24.2334 42.0312ZM47.0273 36.4863V41.2012H49.1191V42.7285H47.0273V47.6924H45.1846V36.4863H47.0273ZM35.207 39.624V38.1465H38.7432V36.4697H40.5859V38.1465H44.1055V39.624H35.207ZM35.9707 43.1104C35.9707 41.3838 37.4731 40.2383 39.6562 40.2383C41.8228 40.2383 43.3169 41.3838 43.3252 43.1104C43.3169 44.8286 41.8228 45.9492 39.6562 45.9492C37.4731 45.9492 35.9707 44.8286 35.9707 43.1104ZM37.415 51.1787V46.8125H39.2578V49.6846H47.625V51.1787H37.415ZM37.7637 43.1104C37.7554 44.0151 38.519 44.5298 39.6562 44.5215C40.7935 44.5298 41.5654 44.0151 41.5654 43.1104C41.5654 42.1973 40.7935 41.666 39.6562 41.666C38.519 41.666 37.7554 42.1973 37.7637 43.1104ZM61.7197 36.4863V39.7402H63.8281V41.2676H61.7197V44.9365H59.877V36.4863H61.7197ZM50.5303 44.0234V37.2168H52.3896V42.5044C54.3071 42.4795 56.3408 42.3052 58.5322 41.8818L58.748 43.3926C56.2578 43.8906 53.9502 44.0234 51.7754 44.0234H50.5303ZM52.0078 51.2783V45.667H61.7197V51.2783H52.0078ZM53.8174 49.8174H59.9102V47.1113H53.8174V49.8174ZM77.5244 36.4697V51.4775H75.748V43.791H74.1543V50.7471H72.4111V36.7354H74.1543V42.2637H75.748V36.4697H77.5244ZM65.04 47.6094V38.0967H70.9336V47.6094H65.04ZM66.7666 46.1484H69.207V39.5576H66.7666V46.1484ZM88.6807 37.9805V50H86.5059V40.0889H86.4395L83.6338 41.8818V39.9062L86.6055 37.9805H88.6807ZM92.2002 44.8037C92.7563 44.1978 93.4453 43.8823 94.209 43.8906C95.5371 43.8823 96.6909 44.8286 98.0107 44.8203C98.7661 44.8286 99.4468 44.5049 99.9697 43.874V45.6836C99.4136 46.2896 98.7246 46.605 97.9609 46.5967C96.6328 46.605 95.4707 45.6587 94.1592 45.667C93.4038 45.6587 92.7314 45.9824 92.2002 46.6133V44.8037ZM106.81 50.166C104.245 50.166 102.41 48.7715 102.36 46.7461H104.535C104.593 47.709 105.556 48.3481 106.81 48.3398C108.129 48.3481 109.084 47.6177 109.084 46.5469C109.084 45.4678 108.154 44.6958 106.594 44.6875H105.515V43.0273H106.594C107.872 43.0273 108.76 42.3135 108.752 41.2676C108.76 40.2549 107.997 39.5742 106.826 39.5742C105.697 39.5742 104.726 40.2051 104.685 41.2178H102.609C102.659 39.2007 104.494 37.8145 106.843 37.8145C109.283 37.8145 110.86 39.3086 110.844 41.1514C110.86 42.4961 109.964 43.4673 108.652 43.7412V43.8408C110.346 44.0649 111.309 45.1523 111.292 46.6631C111.309 48.6968 109.408 50.166 106.81 50.166ZM125.37 36.4863V47.792H123.494V45.9824H120.439V44.5215H123.494V36.4863H125.37ZM112.587 42.2471C114.413 42.2388 116.679 42.2139 118.929 42.0811C119.161 40.6865 119.228 39.5742 119.252 38.7607H113.948V37.2832H121.104V37.8477C121.104 38.6362 121.104 40.0308 120.796 41.9316C121.319 41.8818 121.834 41.8154 122.332 41.749L122.465 43.0605C121.17 43.2847 119.833 43.4341 118.514 43.5337V46.8291H116.688V43.6416C115.293 43.708 113.973 43.7246 112.819 43.7246L112.587 42.2471ZM114.729 51.1787V46.5967H116.571V49.6846H125.719V51.1787H114.729ZM130.301 48.8213L128.906 53.4697H127.329L128.192 48.8213H130.301ZM149.426 44.3223V45.7666H135.713V44.3223H149.426ZM137.257 48.3896V46.9121H147.699V51.4775H145.84V48.3896H137.257ZM137.473 43.21V36.835H147.782V38.2793H139.315V39.3086H147.417V40.6865H139.315V41.7988H147.898V43.21H137.473ZM163.006 36.4697V44.2227H161.163V42.5957H158.142V43.7412H151.119V37.1338H152.962V39.0264H156.315V37.1338H158.142V38.4619H161.163V36.4697H163.006ZM152.962 42.2803H156.315V40.4375H152.962V42.2803ZM153.111 46.2812V44.8369H163.006V48.6885H154.971V49.834H163.487V51.2949H153.128V47.3271H161.163V46.2812H153.111ZM158.142 41.1846H161.163V39.8564H158.142V41.1846ZM177.698 36.4697V47.5596H175.855V43.6416H173.73V42.1143H175.855V40.6865H173.73V39.1924H175.855V36.4697H177.698ZM165.147 44.0566C165.67 44.0566 166.243 44.0566 166.841 44.0483V39.0762H165.529V37.5986H173.515V39.0762H172.187V43.874C172.751 43.8325 173.299 43.7827 173.83 43.7246L173.913 45.0693C171.066 45.5259 167.737 45.584 165.347 45.584L165.147 44.0566ZM167.837 51.1787V46.6963H169.696V49.6846H178.08V51.1787H167.837ZM168.634 44.0234C169.215 44.0151 169.812 43.9902 170.41 43.9653V39.0762H168.634V44.0234ZM197.57 48.1904V49.7344H183.857V48.1904H189.751V45.2354H185.036V43.7744H187.145V39.292H184.986V37.7979H196.375V39.292H194.184V43.7744H196.325V45.2354H191.577V48.1904H197.57ZM188.987 43.7744H192.357V39.292H188.987V43.7744ZM210.387 36.4697V40.2715H212.479V41.8154H210.387V45.5176H208.544V36.4697H210.387ZM198.566 39.3916V37.9141H202.103V36.3701H203.945V37.9141H207.465V39.3916H198.566ZM199.33 42.6289C199.33 41.0269 200.824 39.9395 203.016 39.9395C205.19 39.9395 206.676 41.0269 206.685 42.6289C206.676 44.2476 205.182 45.3184 203.016 45.3184C200.824 45.3184 199.33 44.2476 199.33 42.6289ZM200.691 51.2949V46.2314H210.387V51.2949H200.691ZM201.123 42.6289C201.115 43.4673 201.878 43.9404 203.016 43.9404C204.153 43.9404 204.925 43.4673 204.925 42.6289C204.925 41.8154 204.153 41.334 203.016 41.334C201.878 41.334 201.115 41.8154 201.123 42.6289ZM202.518 49.8008H208.561V47.6924H202.518V49.8008ZM216.33 37.9805L216.147 46.4639H214.271L214.072 37.9805H216.33ZM213.923 48.8379C213.915 48.1406 214.504 47.5679 215.218 47.5596C215.907 47.5679 216.496 48.1406 216.496 48.8379C216.496 49.5518 215.907 50.1328 215.218 50.1328C214.504 50.1328 213.915 49.5518 213.923 48.8379Z" fill="black"/>
<path d="M21.6641 16.5156V19.4453H20.7383V16.5156H21.6641ZM32.3281 21.6133V22.3516H22.8359V21.6133H32.3281ZM23.3281 17.2422V16.5273H27.125V15.4141H28.0391V16.5273H31.7773V17.2422H23.3281ZM24.0664 25.7266V23.1016H24.9922V24.9648H31.2734V25.7266H24.0664ZM24.1953 19.3281C24.1953 18.2617 25.4316 17.7051 27.582 17.7109C29.7148 17.7051 30.957 18.2617 30.957 19.3281C30.957 20.3594 29.7148 20.916 27.582 20.9219C25.4316 20.916 24.1953 20.3594 24.1953 19.3281ZM25.1328 19.3281C25.1211 19.9141 26.0176 20.2363 27.582 20.2305C29.1348 20.2363 30.0312 19.9141 30.0312 19.3281C30.0312 18.7363 29.1348 18.3848 27.582 18.3906C26.0176 18.3848 25.1211 18.7363 25.1328 19.3281ZM41.3516 15.543V18.9766H42.9219V19.75H41.3516V23.3477H40.4375V15.543H41.3516ZM33.2305 17.5703V16.8203H35.8789V15.543H36.793V16.8203H39.4414V17.5703H33.2305ZM33.8281 20.0898C33.8223 18.9062 34.8301 18.1445 36.3359 18.1445C37.8242 18.1445 38.832 18.9062 38.8438 20.0898C38.832 21.2617 37.8242 22.0176 36.3359 22.0117C34.8301 22.0176 33.8223 21.2617 33.8281 20.0898ZM34.707 20.0898C34.7012 20.8223 35.3516 21.2969 36.3359 21.2852C37.3086 21.2969 37.9648 20.8223 37.9766 20.0898C37.9648 19.3457 37.3086 18.8652 36.3359 18.8711C35.3516 18.8652 34.7012 19.3457 34.707 20.0898ZM34.8359 25.7266V22.7266H35.7383V24.9531H41.832V25.7266H34.8359ZM51.7227 15.543V17.9336H53.3047V18.707H51.7227V21.4258H50.8086V15.543H51.7227ZM44.082 20.6289V16.0703H45.0078V19.8555C46.4961 19.8496 48.0254 19.7324 49.707 19.3867L49.8242 20.1602C48.0547 20.5176 46.4785 20.623 44.9141 20.6289H44.082ZM45.125 25.8086V22H51.7227V25.8086H45.125ZM46.0273 25.0586H50.832V22.7266H46.0273V25.0586ZM62.8789 15.5312V25.9492H61.9883V20.4297H60.5352V25.4219H59.6562V15.7539H60.5352V19.668H61.9883V15.5312H62.8789ZM54.3359 23.1484V16.75H58.3203V23.1484H54.3359ZM55.2031 22.4102H57.4531V17.4883H55.2031V22.4102ZM65.5625 16.5156V19.4453H64.6367V16.5156H65.5625ZM79.2383 20.1719V20.8867H74.9375V21.8594H78.0195V24.1094H71.832V25.1289H78.3359V25.832H70.918V23.4531H77.1172V22.5508H70.8945V21.8594H74.0352V20.8867H69.7578V20.1719H79.2383ZM70.2617 18.9883C72.1719 18.8652 73.8008 18.2148 73.9707 17.1719H70.7305V16.4453H74.0352V15.4727H74.9375V16.4453H78.2773V17.1719H75.0078C75.1719 18.2148 76.8008 18.8652 78.7227 18.9883L78.4414 19.6914C76.7012 19.5449 75.1309 19.0059 74.4922 18.0156C73.8477 19.0059 72.2773 19.5449 70.5312 19.6914L70.2617 18.9883ZM86.0703 16.5273V17.2773H85.0039V20.7285C85.5371 20.6934 86.0645 20.6406 86.5625 20.582L86.6328 21.2734C84.5176 21.6016 82.0684 21.6543 80.2578 21.6484L80.1523 20.8867C80.5742 20.8867 81.0254 20.8809 81.5 20.8691V17.2773H80.4453V16.5273H86.0703ZM81.7461 25.7266V22.4805H82.6484V24.9531H88.7422V25.7266H81.7461ZM82.4023 20.8516C82.959 20.8398 83.5332 20.8164 84.1016 20.7871V17.2773H82.4023V20.8516ZM87.3477 23.207V15.543H88.2617V18.707H89.832V19.4922H88.2617V23.207H87.3477ZM102.113 15.5312V25.9492H101.188V15.5312H102.113ZM93.6289 23.2422C96.4473 21.9062 97.8887 19.9082 98.0938 17.418H94.1094V16.668H99.0312C99.0195 19.6621 97.625 22.3164 94.1328 23.9922L93.6289 23.2422ZM110.422 16.4922V17.1953H104.27V16.4922H106.883V15.4727H107.797V16.4922H110.422ZM103.918 21.4375C104.803 21.4375 105.822 21.4316 106.883 21.3965V20.6699C105.646 20.5586 104.855 20.002 104.867 19.1523C104.855 18.1855 105.846 17.5938 107.352 17.5938C108.834 17.5938 109.836 18.1855 109.848 19.1523C109.836 20.002 109.033 20.5645 107.797 20.6699V21.3613C108.77 21.3145 109.754 21.2383 110.668 21.1094L110.738 21.7656C108.453 22.1406 105.934 22.1758 104.059 22.1758L103.918 21.4375ZM105.43 23.7344V22.9961H112.461V25.9492H111.535V23.7344H105.43ZM105.734 19.1523C105.734 19.6855 106.373 20.043 107.352 20.0312C108.312 20.043 108.963 19.6855 108.957 19.1523C108.963 18.584 108.312 18.2383 107.352 18.25C106.373 18.2383 105.734 18.584 105.734 19.1523ZM111.535 22.5039V15.5664H112.461V22.5039H111.535ZM122.879 15.543V23.1836H121.953V19.1875H119.809V18.4258H121.953V15.543H122.879ZM114.289 21.0977C115.824 20.5586 116.938 19.1816 116.938 17.6875V17.1484H114.582V16.3867H120.195V17.1484H117.863V17.6875C117.863 19.0352 118.906 20.3418 120.43 20.8633L119.949 21.6016C118.777 21.1738 117.869 20.3008 117.418 19.2227C116.967 20.4297 116.006 21.3848 114.77 21.8477L114.289 21.0977ZM116.188 25.7266V22.4922H117.113V24.9531H123.172V25.7266H116.188ZM126.301 16.5156L126.219 22.6094H125.234L125.152 16.5156H126.301ZM124.977 24.3086C124.965 23.8984 125.316 23.5586 125.727 23.5586C126.143 23.5586 126.482 23.8984 126.477 24.3086C126.482 24.7246 126.143 25.0645 125.727 25.0703C125.316 25.0645 124.965 24.7246 124.977 24.3086Z" fill="black"/>
<path d="M23.457 76.5508C23.4521 77.9131 24.2725 79.4658 25.6641 80.1152L25.0586 80.9746C24.0625 80.5059 23.3252 79.5586 22.9297 78.4551C22.5293 79.666 21.7578 80.7012 20.7422 81.1895L20.1074 80.3398C21.5137 79.6709 22.3682 78.0205 22.373 76.5508V75.8086H20.4492V74.9102H25.3027V75.8086H23.457V76.5508ZM26.123 82.8691V74.041H27.207V77.4785H28.5645V78.3867H27.207V82.8691H26.123ZM31.6895 76.3555C31.6943 77.7812 32.1826 79.2656 33.3789 80.0176L32.7832 80.8477C31.9873 80.3691 31.4697 79.5488 31.1768 78.5869C30.8594 79.6465 30.293 80.5449 29.4629 81.0527L28.7891 80.2422C30.0732 79.4658 30.6396 77.9082 30.6445 76.4043V74.8223H31.6895V76.3555ZM32.4316 77.9766V77.0781H33.6914V74.1973H34.7168V82.4395H33.6914V77.9766H32.4316ZM35.5078 82.8691V74.041H36.5527V82.8691H35.5078ZM44.9219 74.041V82.8691H43.8281V74.041H44.9219ZM37.7637 76.2773V75.4082H39.8633V74.1484H40.9668V75.4082H43.0566V76.2773H37.7637ZM38.1836 78.9238C38.1836 77.7031 39.1309 76.8389 40.4297 76.8438C41.7236 76.8389 42.6758 77.7031 42.6758 78.9238C42.6758 80.1396 41.7236 80.9941 40.4297 80.9941C39.1309 80.9941 38.1836 80.1396 38.1836 78.9238ZM39.2188 78.9238C39.2188 79.6416 39.7217 80.1006 40.4297 80.0957C41.1328 80.1006 41.6357 79.6416 41.6309 78.9238C41.6357 78.2061 41.1328 77.7324 40.4297 77.7324C39.7217 77.7324 39.2188 78.2061 39.2188 78.9238ZM56.6602 80.916V81.8047H48.5938V80.916H52.0703V79.1973H49.4824V74.627H50.5664V76.0723H54.6582V74.627H55.7422V79.1973H53.1445V80.916H56.6602ZM50.5664 78.3184H54.6582V76.9414H50.5664V78.3184ZM64.6094 74.041V82.8691H63.5156V74.041H64.6094ZM57.2949 80.4375C59.6094 79.3389 60.6738 77.8447 60.8691 75.8379H57.7441V74.9785H61.9727C61.9727 77.6055 60.9521 79.8369 57.8613 81.3066L57.2949 80.4375Z" fill="black"/>
<path d="M70 81L72 78.5L70 76" stroke="#404040" stroke-linecap="round"/>
<rect x="20" y="85" width="53" height="0.3" fill="black"/>
<rect x="296" y="66" width="38" height="18" rx="9" fill="#202328"/>
<path d="M311.457 71.9297V79H310.178V73.1699H310.139L308.488 74.2246V73.0625L310.236 71.9297H311.457Z" fill="white"/>
<path d="M316.066 71.5977L313.791 80.0645H312.697L314.982 71.5977H316.066ZM316.633 77.6816V76.666L319.689 71.9297H321.271V76.6367H322.199V77.6816H321.271V79H320.061V77.6816H316.633ZM317.932 76.6367H320.08V73.375H320.002L317.932 76.5879V76.6367Z" fill="#BABABA"/>
</svg>
